<mxfile host="Electron" agent="Mozilla/5.0 (Windows NT 10.0; Win64; x64) AppleWebKit/537.36 (KHTML, like Gecko) draw.io/26.2.2 Chrome/134.0.6998.178 Electron/35.1.2 Safari/537.36" version="26.2.2">
  <diagram name="Page-1" id="74e2e168-ea6b-b213-b513-2b3c1d86103e">
    <mxGraphModel dx="2603" dy="929" grid="1" gridSize="10" guides="1" tooltips="1" connect="1" arrows="1" fold="1" page="1" pageScale="1" pageWidth="1100" pageHeight="850" background="none" math="0" shadow="0">
      <root>
        <mxCell id="0" />
        <mxCell id="1" parent="0" />
        <mxCell id="77e6c97f196da883-1" value="&lt;font style=&quot;font-size: 14px;&quot;&gt;Sprint Execution (3 weeks / 15 days)&lt;/font&gt;" style="swimlane;html=1;childLayout=stackLayout;startSize=20;rounded=0;shadow=0;labelBackgroundColor=none;strokeWidth=1;fontFamily=Verdana;fontSize=8;align=center;" parent="1" vertex="1">
          <mxGeometry x="250" y="40" width="960" height="750" as="geometry">
            <mxRectangle x="70" y="40" width="60" height="20" as="alternateBounds" />
          </mxGeometry>
        </mxCell>
        <mxCell id="77e6c97f196da883-2" value="Sprint Planniong&lt;div&gt;(Day 1)&lt;/div&gt;" style="swimlane;html=1;startSize=50;" parent="77e6c97f196da883-1" vertex="1">
          <mxGeometry y="20" width="160" height="730" as="geometry" />
        </mxCell>
        <mxCell id="77e6c97f196da883-8" value="&lt;font style=&quot;font-size: 12px;&quot;&gt;Spring Goal&lt;/font&gt;&lt;div&gt;&lt;font style=&quot;font-size: 12px;&quot;&gt;(TPM)&lt;/font&gt;&lt;/div&gt;" style="rounded=1;whiteSpace=wrap;html=1;shadow=0;labelBackgroundColor=none;strokeWidth=1;fontFamily=Verdana;fontSize=8;align=center;" parent="77e6c97f196da883-2" vertex="1">
          <mxGeometry x="30" y="110" width="100" height="60" as="geometry" />
        </mxCell>
        <mxCell id="77e6c97f196da883-9" value="&lt;font style=&quot;font-size: 12px;&quot;&gt;Breakdown &amp;amp;&lt;/font&gt;&lt;div&gt;&lt;font style=&quot;font-size: 12px;&quot;&gt;Distribution&lt;/font&gt;&lt;/div&gt;&lt;div&gt;&lt;span style=&quot;font-size: 12px;&quot;&gt;(TPM &amp;amp; TL)&lt;/span&gt;&lt;/div&gt;" style="rounded=1;whiteSpace=wrap;html=1;shadow=0;labelBackgroundColor=none;strokeWidth=1;fontFamily=Verdana;fontSize=8;align=center;" parent="77e6c97f196da883-2" vertex="1">
          <mxGeometry x="30" y="230" width="100" height="85" as="geometry" />
        </mxCell>
        <mxCell id="77e6c97f196da883-3" value="Daily Scrum&lt;div&gt;(Day1 - Day 15)&lt;/div&gt;" style="swimlane;html=1;startSize=50;" parent="77e6c97f196da883-1" vertex="1">
          <mxGeometry x="160" y="20" width="160" height="730" as="geometry" />
        </mxCell>
        <mxCell id="UhYHGBfXSjaRqilav2EY-29" value="&lt;span style=&quot;font-size: 12px;&quot;&gt;Daliy Update&lt;/span&gt;&lt;br&gt;&lt;div&gt;&lt;font style=&quot;font-size: 12px;&quot;&gt;(TPM)&lt;/font&gt;&lt;/div&gt;" style="rounded=1;whiteSpace=wrap;html=1;shadow=0;labelBackgroundColor=none;strokeWidth=1;fontFamily=Verdana;fontSize=8;align=center;" vertex="1" parent="77e6c97f196da883-3">
          <mxGeometry x="30" y="110" width="100" height="60" as="geometry" />
        </mxCell>
        <mxCell id="UhYHGBfXSjaRqilav2EY-30" value="&lt;span style=&quot;font-size: 12px;&quot;&gt;Triage Bug&lt;/span&gt;&lt;br&gt;&lt;div&gt;&lt;font style=&quot;font-size: 12px;&quot;&gt;(TPM)&lt;/font&gt;&lt;/div&gt;" style="rounded=1;whiteSpace=wrap;html=1;shadow=0;labelBackgroundColor=none;strokeWidth=1;fontFamily=Verdana;fontSize=8;align=center;" vertex="1" parent="77e6c97f196da883-3">
          <mxGeometry x="30" y="230" width="100" height="60" as="geometry" />
        </mxCell>
        <mxCell id="UhYHGBfXSjaRqilav2EY-31" value="&lt;span style=&quot;font-size: 12px;&quot;&gt;JIRA Ticket&lt;/span&gt;&lt;div&gt;&lt;span style=&quot;font-size: 12px;&quot;&gt;&amp;nbsp;Update&lt;/span&gt;&lt;br&gt;&lt;div&gt;&lt;font style=&quot;font-size: 12px;&quot;&gt;(TPM)&lt;/font&gt;&lt;/div&gt;&lt;/div&gt;" style="rounded=1;whiteSpace=wrap;html=1;shadow=0;labelBackgroundColor=none;strokeWidth=1;fontFamily=Verdana;fontSize=8;align=center;" vertex="1" parent="77e6c97f196da883-3">
          <mxGeometry x="25" y="360" width="110" height="70" as="geometry" />
        </mxCell>
        <mxCell id="UhYHGBfXSjaRqilav2EY-32" value="&lt;span style=&quot;font-size: 12px;&quot;&gt;JIRA Dashboard&lt;/span&gt;&lt;div&gt;&lt;span style=&quot;font-size: 12px;&quot;&gt;&amp;nbsp;Update&lt;/span&gt;&lt;br&gt;&lt;div&gt;&lt;font style=&quot;font-size: 12px;&quot;&gt;(TPM)&lt;/font&gt;&lt;/div&gt;&lt;/div&gt;" style="rounded=1;whiteSpace=wrap;html=1;shadow=0;labelBackgroundColor=none;strokeWidth=1;fontFamily=Verdana;fontSize=8;align=center;" vertex="1" parent="77e6c97f196da883-3">
          <mxGeometry x="25" y="490" width="110" height="70" as="geometry" />
        </mxCell>
        <mxCell id="77e6c97f196da883-4" value="Delivery&lt;div&gt;(Day 14)&lt;/div&gt;" style="swimlane;html=1;startSize=50;" parent="77e6c97f196da883-1" vertex="1">
          <mxGeometry x="320" y="20" width="160" height="730" as="geometry">
            <mxRectangle x="320" y="20" width="40" height="730" as="alternateBounds" />
          </mxGeometry>
        </mxCell>
        <mxCell id="UhYHGBfXSjaRqilav2EY-38" style="edgeStyle=orthogonalEdgeStyle;rounded=0;orthogonalLoop=1;jettySize=auto;html=1;entryX=0.5;entryY=0;entryDx=0;entryDy=0;" edge="1" parent="77e6c97f196da883-4" source="UhYHGBfXSjaRqilav2EY-33" target="UhYHGBfXSjaRqilav2EY-34">
          <mxGeometry relative="1" as="geometry" />
        </mxCell>
        <mxCell id="UhYHGBfXSjaRqilav2EY-33" value="&lt;div&gt;&lt;span style=&quot;font-size: 12px;&quot;&gt;System Test&lt;/span&gt;&lt;br&gt;&lt;div&gt;&lt;font style=&quot;font-size: 12px;&quot;&gt;(TPM)&lt;/font&gt;&lt;/div&gt;&lt;/div&gt;" style="rounded=1;whiteSpace=wrap;html=1;shadow=0;labelBackgroundColor=none;strokeWidth=1;fontFamily=Verdana;fontSize=8;align=center;" vertex="1" parent="77e6c97f196da883-4">
          <mxGeometry x="25" y="105" width="110" height="70" as="geometry" />
        </mxCell>
        <mxCell id="UhYHGBfXSjaRqilav2EY-39" style="edgeStyle=orthogonalEdgeStyle;rounded=0;orthogonalLoop=1;jettySize=auto;html=1;entryX=0.5;entryY=0;entryDx=0;entryDy=0;" edge="1" parent="77e6c97f196da883-4" source="UhYHGBfXSjaRqilav2EY-34" target="UhYHGBfXSjaRqilav2EY-35">
          <mxGeometry relative="1" as="geometry" />
        </mxCell>
        <mxCell id="UhYHGBfXSjaRqilav2EY-34" value="&lt;span style=&quot;font-size: 12px;&quot;&gt;CI/CD Complete&lt;/span&gt;&lt;br&gt;&lt;div&gt;&lt;font style=&quot;font-size: 12px;&quot;&gt;(TPM)&lt;/font&gt;&lt;/div&gt;" style="rounded=1;whiteSpace=wrap;html=1;shadow=0;labelBackgroundColor=none;strokeWidth=1;fontFamily=Verdana;fontSize=8;align=center;" vertex="1" parent="77e6c97f196da883-4">
          <mxGeometry x="25" y="231" width="110" height="70" as="geometry" />
        </mxCell>
        <mxCell id="UhYHGBfXSjaRqilav2EY-40" style="edgeStyle=orthogonalEdgeStyle;rounded=0;orthogonalLoop=1;jettySize=auto;html=1;" edge="1" parent="77e6c97f196da883-4" source="UhYHGBfXSjaRqilav2EY-35" target="UhYHGBfXSjaRqilav2EY-36">
          <mxGeometry relative="1" as="geometry" />
        </mxCell>
        <mxCell id="UhYHGBfXSjaRqilav2EY-35" value="&lt;span style=&quot;font-size: 12px;&quot;&gt;Platform Publish&lt;/span&gt;&lt;div&gt;&lt;span style=&quot;font-size: 12px;&quot;&gt;(TPM)&lt;/span&gt;&lt;/div&gt;" style="rounded=1;whiteSpace=wrap;html=1;shadow=0;labelBackgroundColor=none;strokeWidth=1;fontFamily=Verdana;fontSize=8;align=center;" vertex="1" parent="77e6c97f196da883-4">
          <mxGeometry x="25" y="365" width="110" height="70" as="geometry" />
        </mxCell>
        <mxCell id="UhYHGBfXSjaRqilav2EY-36" value="&lt;span style=&quot;font-size: 12px; background-color: transparent; color: light-dark(rgb(0, 0, 0), rgb(255, 255, 255));&quot;&gt;Feature Demo&lt;/span&gt;&lt;div&gt;&lt;span style=&quot;font-size: 12px; background-color: transparent; color: light-dark(rgb(0, 0, 0), rgb(255, 255, 255));&quot;&gt;(TPM)&lt;/span&gt;&lt;/div&gt;" style="rounded=1;whiteSpace=wrap;html=1;shadow=0;labelBackgroundColor=none;strokeWidth=1;fontFamily=Verdana;fontSize=8;align=center;" vertex="1" parent="77e6c97f196da883-4">
          <mxGeometry x="25" y="490" width="110" height="70" as="geometry" />
        </mxCell>
        <mxCell id="77e6c97f196da883-5" value="Sprint Reivew&lt;div&gt;&amp;amp; Retrosepctive&amp;nbsp;&lt;/div&gt;&lt;div&gt;(Day 15)&lt;/div&gt;" style="swimlane;html=1;startSize=50;" parent="77e6c97f196da883-1" vertex="1">
          <mxGeometry x="480" y="20" width="160" height="730" as="geometry">
            <mxRectangle x="480" y="20" width="40" height="730" as="alternateBounds" />
          </mxGeometry>
        </mxCell>
        <mxCell id="UhYHGBfXSjaRqilav2EY-41" value="&lt;div&gt;&lt;span style=&quot;font-size: 12px;&quot;&gt;Sprint Reivew&lt;/span&gt;&lt;br&gt;&lt;div&gt;&lt;font style=&quot;font-size: 12px;&quot;&gt;(TPM)&lt;/font&gt;&lt;/div&gt;&lt;/div&gt;" style="rounded=1;whiteSpace=wrap;html=1;shadow=0;labelBackgroundColor=none;strokeWidth=1;fontFamily=Verdana;fontSize=8;align=center;" vertex="1" parent="77e6c97f196da883-5">
          <mxGeometry x="30" y="105" width="110" height="70" as="geometry" />
        </mxCell>
        <mxCell id="UhYHGBfXSjaRqilav2EY-42" value="&lt;div&gt;&lt;span style=&quot;font-size: 12px;&quot;&gt;Preview Retrospecitve&lt;/span&gt;&lt;/div&gt;&lt;div&gt;&lt;span style=&quot;font-size: 12px;&quot;&gt;Feedback&lt;br&gt;&lt;/span&gt;&lt;div&gt;&lt;font style=&quot;font-size: 12px;&quot;&gt;(TPM)&lt;/font&gt;&lt;/div&gt;&lt;/div&gt;" style="rounded=1;whiteSpace=wrap;html=1;shadow=0;labelBackgroundColor=none;strokeWidth=1;fontFamily=Verdana;fontSize=8;align=center;" vertex="1" parent="77e6c97f196da883-5">
          <mxGeometry x="30" y="230" width="110" height="90" as="geometry" />
        </mxCell>
        <mxCell id="UhYHGBfXSjaRqilav2EY-43" value="&lt;div&gt;&lt;span style=&quot;font-size: 12px;&quot;&gt;Current Sprint Retrospecitve&lt;/span&gt;&lt;/div&gt;&lt;div&gt;&lt;div&gt;&lt;font style=&quot;font-size: 12px;&quot;&gt;(TPM)&lt;/font&gt;&lt;/div&gt;&lt;/div&gt;" style="rounded=1;whiteSpace=wrap;html=1;shadow=0;labelBackgroundColor=none;strokeWidth=1;fontFamily=Verdana;fontSize=8;align=center;" vertex="1" parent="77e6c97f196da883-5">
          <mxGeometry x="30" y="365" width="110" height="90" as="geometry" />
        </mxCell>
        <mxCell id="77e6c97f196da883-6" value="Phase Preparation&lt;div&gt;(Day 10)&lt;/div&gt;" style="swimlane;html=1;startSize=50;fillColor=#dae8fc;strokeColor=#6c8ebf;" parent="77e6c97f196da883-1" vertex="1">
          <mxGeometry x="640" y="20" width="160" height="730" as="geometry" />
        </mxCell>
        <mxCell id="UhYHGBfXSjaRqilav2EY-46" value="&lt;font style=&quot;font-size: 12px;&quot;&gt;Team Capacity&lt;/font&gt;&lt;div&gt;&lt;font style=&quot;font-size: 12px;&quot;&gt;(TPM)&lt;/font&gt;&lt;/div&gt;" style="rounded=1;whiteSpace=wrap;html=1;shadow=0;labelBackgroundColor=none;strokeWidth=1;fontFamily=Verdana;fontSize=8;align=center;" vertex="1" parent="77e6c97f196da883-6">
          <mxGeometry x="30" y="597" width="100" height="60" as="geometry" />
        </mxCell>
        <mxCell id="UhYHGBfXSjaRqilav2EY-54" style="edgeStyle=orthogonalEdgeStyle;rounded=0;orthogonalLoop=1;jettySize=auto;html=1;" edge="1" parent="77e6c97f196da883-6" source="UhYHGBfXSjaRqilav2EY-47" target="UhYHGBfXSjaRqilav2EY-49">
          <mxGeometry relative="1" as="geometry" />
        </mxCell>
        <mxCell id="UhYHGBfXSjaRqilav2EY-47" value="&lt;font style=&quot;font-size: 12px;&quot;&gt;Product Document&lt;/font&gt;&lt;div&gt;&lt;font style=&quot;font-size: 12px;&quot;&gt;(Product Owner)&lt;/font&gt;&lt;/div&gt;" style="rounded=1;whiteSpace=wrap;html=1;shadow=0;labelBackgroundColor=none;strokeWidth=1;fontFamily=Verdana;fontSize=8;align=center;" vertex="1" parent="77e6c97f196da883-6">
          <mxGeometry x="20" y="105" width="120" height="60" as="geometry" />
        </mxCell>
        <mxCell id="UhYHGBfXSjaRqilav2EY-56" style="edgeStyle=orthogonalEdgeStyle;rounded=0;orthogonalLoop=1;jettySize=auto;html=1;entryX=0.5;entryY=0;entryDx=0;entryDy=0;" edge="1" parent="77e6c97f196da883-6" source="UhYHGBfXSjaRqilav2EY-48" target="UhYHGBfXSjaRqilav2EY-50">
          <mxGeometry relative="1" as="geometry" />
        </mxCell>
        <mxCell id="UhYHGBfXSjaRqilav2EY-48" value="&lt;font style=&quot;font-size: 12px;&quot;&gt;Gromming Session&lt;/font&gt;&lt;div&gt;&lt;font style=&quot;font-size: 12px;&quot;&gt;(TPM)&lt;/font&gt;&lt;/div&gt;" style="rounded=1;whiteSpace=wrap;html=1;shadow=0;labelBackgroundColor=none;strokeWidth=1;fontFamily=Verdana;fontSize=8;align=center;" vertex="1" parent="77e6c97f196da883-6">
          <mxGeometry x="15" y="343" width="130" height="70" as="geometry" />
        </mxCell>
        <mxCell id="UhYHGBfXSjaRqilav2EY-55" style="edgeStyle=orthogonalEdgeStyle;rounded=0;orthogonalLoop=1;jettySize=auto;html=1;entryX=0.5;entryY=0;entryDx=0;entryDy=0;" edge="1" parent="77e6c97f196da883-6" source="UhYHGBfXSjaRqilav2EY-49" target="UhYHGBfXSjaRqilav2EY-48">
          <mxGeometry relative="1" as="geometry" />
        </mxCell>
        <mxCell id="UhYHGBfXSjaRqilav2EY-49" value="&lt;span style=&quot;font-size: 12px;&quot;&gt;Software Design&lt;/span&gt;&lt;div&gt;&lt;span style=&quot;font-size: 12px;&quot;&gt;Document&lt;/span&gt;&lt;/div&gt;&lt;div&gt;&lt;span style=&quot;font-size: 12px;&quot;&gt;(TPM &amp;amp; TL)&lt;/span&gt;&lt;/div&gt;" style="rounded=1;whiteSpace=wrap;html=1;shadow=0;labelBackgroundColor=none;strokeWidth=1;fontFamily=Verdana;fontSize=8;align=center;" vertex="1" parent="77e6c97f196da883-6">
          <mxGeometry x="20" y="235" width="120" height="60" as="geometry" />
        </mxCell>
        <mxCell id="UhYHGBfXSjaRqilav2EY-57" style="edgeStyle=orthogonalEdgeStyle;rounded=0;orthogonalLoop=1;jettySize=auto;html=1;" edge="1" parent="77e6c97f196da883-6" source="UhYHGBfXSjaRqilav2EY-50" target="UhYHGBfXSjaRqilav2EY-46">
          <mxGeometry relative="1" as="geometry" />
        </mxCell>
        <mxCell id="UhYHGBfXSjaRqilav2EY-50" value="&lt;span style=&quot;font-size: 12px;&quot;&gt;Backlog Update&lt;/span&gt;&lt;div&gt;&lt;span style=&quot;font-size: 12px;&quot;&gt;(TPM)&lt;/span&gt;&lt;/div&gt;" style="rounded=1;whiteSpace=wrap;html=1;shadow=0;labelBackgroundColor=none;strokeWidth=1;fontFamily=Verdana;fontSize=8;align=center;" vertex="1" parent="77e6c97f196da883-6">
          <mxGeometry x="15" y="465" width="130" height="70" as="geometry" />
        </mxCell>
        <mxCell id="77e6c97f196da883-7" value="Phase Planning&lt;div&gt;(Day 14)&lt;/div&gt;" style="swimlane;html=1;startSize=50;fillColor=#dae8fc;strokeColor=#6c8ebf;" parent="77e6c97f196da883-1" vertex="1">
          <mxGeometry x="800" y="20" width="160" height="730" as="geometry" />
        </mxCell>
        <mxCell id="UhYHGBfXSjaRqilav2EY-51" style="edgeStyle=orthogonalEdgeStyle;rounded=0;orthogonalLoop=1;jettySize=auto;html=1;entryX=0.5;entryY=1;entryDx=0;entryDy=0;" edge="1" parent="77e6c97f196da883-7" source="UhYHGBfXSjaRqilav2EY-52" target="UhYHGBfXSjaRqilav2EY-53">
          <mxGeometry relative="1" as="geometry" />
        </mxCell>
        <mxCell id="UhYHGBfXSjaRqilav2EY-52" value="&lt;span style=&quot;font-size: 12px;&quot;&gt;Phase Planning&lt;/span&gt;&lt;div&gt;&lt;span style=&quot;font-size: 12px;&quot;&gt;Meeting&lt;/span&gt;&lt;/div&gt;&lt;div&gt;&lt;span style=&quot;font-size: 12px;&quot;&gt;(TPM &amp;amp; TL &amp;amp; PO)&lt;/span&gt;&lt;/div&gt;" style="rounded=1;whiteSpace=wrap;html=1;shadow=0;labelBackgroundColor=none;strokeWidth=1;fontFamily=Verdana;fontSize=8;align=center;" vertex="1" parent="77e6c97f196da883-7">
          <mxGeometry x="20" y="460" width="120" height="75" as="geometry" />
        </mxCell>
        <mxCell id="UhYHGBfXSjaRqilav2EY-53" value="&lt;font style=&quot;font-size: 12px;&quot;&gt;JIRA Dashboard&lt;/font&gt;&lt;div&gt;&lt;font style=&quot;font-size: 12px;&quot;&gt;(TPM)&lt;/font&gt;&lt;/div&gt;" style="rounded=1;whiteSpace=wrap;html=1;shadow=0;labelBackgroundColor=none;strokeWidth=1;fontFamily=Verdana;fontSize=8;align=center;" vertex="1" parent="77e6c97f196da883-7">
          <mxGeometry x="30" y="344.5" width="100" height="60" as="geometry" />
        </mxCell>
        <mxCell id="UhYHGBfXSjaRqilav2EY-59" style="edgeStyle=orthogonalEdgeStyle;rounded=0;orthogonalLoop=1;jettySize=auto;html=1;entryX=0.5;entryY=1;entryDx=0;entryDy=0;" edge="1" parent="77e6c97f196da883-1" source="UhYHGBfXSjaRqilav2EY-46" target="UhYHGBfXSjaRqilav2EY-52">
          <mxGeometry relative="1" as="geometry" />
        </mxCell>
        <mxCell id="UhYHGBfXSjaRqilav2EY-2" value="Phase Planning&lt;div&gt;(Day -1)&lt;/div&gt;" style="swimlane;html=1;startSize=50;fillColor=#dae8fc;strokeColor=#6c8ebf;" vertex="1" parent="1">
          <mxGeometry x="90" y="60" width="160" height="730" as="geometry" />
        </mxCell>
        <mxCell id="UhYHGBfXSjaRqilav2EY-24" style="edgeStyle=orthogonalEdgeStyle;rounded=0;orthogonalLoop=1;jettySize=auto;html=1;entryX=0.5;entryY=1;entryDx=0;entryDy=0;" edge="1" parent="UhYHGBfXSjaRqilav2EY-2" source="UhYHGBfXSjaRqilav2EY-4" target="UhYHGBfXSjaRqilav2EY-5">
          <mxGeometry relative="1" as="geometry" />
        </mxCell>
        <mxCell id="UhYHGBfXSjaRqilav2EY-4" value="&lt;span style=&quot;font-size: 12px;&quot;&gt;Phase Planning&lt;/span&gt;&lt;div&gt;&lt;span style=&quot;font-size: 12px;&quot;&gt;Meeting&lt;/span&gt;&lt;/div&gt;&lt;div&gt;&lt;span style=&quot;font-size: 12px;&quot;&gt;(TPM &amp;amp; TL &amp;amp; PO)&lt;/span&gt;&lt;/div&gt;" style="rounded=1;whiteSpace=wrap;html=1;shadow=0;labelBackgroundColor=none;strokeWidth=1;fontFamily=Verdana;fontSize=8;align=center;" vertex="1" parent="UhYHGBfXSjaRqilav2EY-2">
          <mxGeometry x="20" y="435.5" width="120" height="75" as="geometry" />
        </mxCell>
        <mxCell id="UhYHGBfXSjaRqilav2EY-5" value="&lt;font style=&quot;font-size: 12px;&quot;&gt;JIRA Dashboard&lt;/font&gt;&lt;div&gt;&lt;font style=&quot;font-size: 12px;&quot;&gt;(TPM)&lt;/font&gt;&lt;/div&gt;" style="rounded=1;whiteSpace=wrap;html=1;shadow=0;labelBackgroundColor=none;strokeWidth=1;fontFamily=Verdana;fontSize=8;align=center;" vertex="1" parent="UhYHGBfXSjaRqilav2EY-2">
          <mxGeometry x="30" y="320" width="100" height="60" as="geometry" />
        </mxCell>
        <mxCell id="UhYHGBfXSjaRqilav2EY-6" value="Phase Preparation&lt;div&gt;(Day -5)&lt;/div&gt;" style="swimlane;html=1;startSize=50;fillColor=#dae8fc;strokeColor=#6c8ebf;" vertex="1" parent="1">
          <mxGeometry x="-70" y="60" width="160" height="730" as="geometry" />
        </mxCell>
        <mxCell id="UhYHGBfXSjaRqilav2EY-7" value="&lt;font style=&quot;font-size: 12px;&quot;&gt;Team Capacity&lt;/font&gt;&lt;div&gt;&lt;font style=&quot;font-size: 12px;&quot;&gt;(TPM)&lt;/font&gt;&lt;/div&gt;" style="rounded=1;whiteSpace=wrap;html=1;shadow=0;labelBackgroundColor=none;strokeWidth=1;fontFamily=Verdana;fontSize=8;align=center;" vertex="1" parent="UhYHGBfXSjaRqilav2EY-6">
          <mxGeometry x="30" y="570" width="100" height="60" as="geometry" />
        </mxCell>
        <mxCell id="UhYHGBfXSjaRqilav2EY-16" style="edgeStyle=orthogonalEdgeStyle;rounded=0;orthogonalLoop=1;jettySize=auto;html=1;" edge="1" parent="UhYHGBfXSjaRqilav2EY-6" source="UhYHGBfXSjaRqilav2EY-8" target="UhYHGBfXSjaRqilav2EY-15">
          <mxGeometry relative="1" as="geometry" />
        </mxCell>
        <mxCell id="UhYHGBfXSjaRqilav2EY-8" value="&lt;font style=&quot;font-size: 12px;&quot;&gt;Product Document&lt;/font&gt;&lt;div&gt;&lt;font style=&quot;font-size: 12px;&quot;&gt;(Product Owner)&lt;/font&gt;&lt;/div&gt;" style="rounded=1;whiteSpace=wrap;html=1;shadow=0;labelBackgroundColor=none;strokeWidth=1;fontFamily=Verdana;fontSize=8;align=center;" vertex="1" parent="UhYHGBfXSjaRqilav2EY-6">
          <mxGeometry x="20" y="78" width="120" height="60" as="geometry" />
        </mxCell>
        <mxCell id="UhYHGBfXSjaRqilav2EY-20" style="edgeStyle=orthogonalEdgeStyle;rounded=0;orthogonalLoop=1;jettySize=auto;html=1;entryX=0.5;entryY=0;entryDx=0;entryDy=0;" edge="1" parent="UhYHGBfXSjaRqilav2EY-6" source="UhYHGBfXSjaRqilav2EY-9" target="UhYHGBfXSjaRqilav2EY-18">
          <mxGeometry relative="1" as="geometry" />
        </mxCell>
        <mxCell id="UhYHGBfXSjaRqilav2EY-9" value="&lt;font style=&quot;font-size: 12px;&quot;&gt;Gromming Session&lt;/font&gt;&lt;div&gt;&lt;font style=&quot;font-size: 12px;&quot;&gt;(TPM)&lt;/font&gt;&lt;/div&gt;" style="rounded=1;whiteSpace=wrap;html=1;shadow=0;labelBackgroundColor=none;strokeWidth=1;fontFamily=Verdana;fontSize=8;align=center;" vertex="1" parent="UhYHGBfXSjaRqilav2EY-6">
          <mxGeometry x="15" y="316" width="130" height="70" as="geometry" />
        </mxCell>
        <mxCell id="UhYHGBfXSjaRqilav2EY-19" style="edgeStyle=orthogonalEdgeStyle;rounded=0;orthogonalLoop=1;jettySize=auto;html=1;entryX=0.5;entryY=0;entryDx=0;entryDy=0;" edge="1" parent="UhYHGBfXSjaRqilav2EY-6" source="UhYHGBfXSjaRqilav2EY-15" target="UhYHGBfXSjaRqilav2EY-9">
          <mxGeometry relative="1" as="geometry" />
        </mxCell>
        <mxCell id="UhYHGBfXSjaRqilav2EY-15" value="&lt;span style=&quot;font-size: 12px;&quot;&gt;Software Design&lt;/span&gt;&lt;div&gt;&lt;span style=&quot;font-size: 12px;&quot;&gt;Document&lt;/span&gt;&lt;/div&gt;&lt;div&gt;&lt;span style=&quot;font-size: 12px;&quot;&gt;(TPM &amp;amp; TL)&lt;/span&gt;&lt;/div&gt;" style="rounded=1;whiteSpace=wrap;html=1;shadow=0;labelBackgroundColor=none;strokeWidth=1;fontFamily=Verdana;fontSize=8;align=center;" vertex="1" parent="UhYHGBfXSjaRqilav2EY-6">
          <mxGeometry x="20" y="208" width="120" height="60" as="geometry" />
        </mxCell>
        <mxCell id="UhYHGBfXSjaRqilav2EY-18" value="&lt;span style=&quot;font-size: 12px;&quot;&gt;Backlog Update&lt;/span&gt;&lt;div&gt;&lt;span style=&quot;font-size: 12px;&quot;&gt;(TPM)&lt;/span&gt;&lt;/div&gt;" style="rounded=1;whiteSpace=wrap;html=1;shadow=0;labelBackgroundColor=none;strokeWidth=1;fontFamily=Verdana;fontSize=8;align=center;" vertex="1" parent="UhYHGBfXSjaRqilav2EY-6">
          <mxGeometry x="15" y="438" width="130" height="70" as="geometry" />
        </mxCell>
        <mxCell id="UhYHGBfXSjaRqilav2EY-22" style="edgeStyle=orthogonalEdgeStyle;rounded=0;orthogonalLoop=1;jettySize=auto;html=1;entryX=0;entryY=0.5;entryDx=0;entryDy=0;" edge="1" parent="1" source="UhYHGBfXSjaRqilav2EY-18" target="UhYHGBfXSjaRqilav2EY-4">
          <mxGeometry relative="1" as="geometry" />
        </mxCell>
        <mxCell id="UhYHGBfXSjaRqilav2EY-23" style="edgeStyle=orthogonalEdgeStyle;rounded=0;orthogonalLoop=1;jettySize=auto;html=1;entryX=0.5;entryY=1;entryDx=0;entryDy=0;" edge="1" parent="1" source="UhYHGBfXSjaRqilav2EY-7" target="UhYHGBfXSjaRqilav2EY-4">
          <mxGeometry relative="1" as="geometry" />
        </mxCell>
        <mxCell id="UhYHGBfXSjaRqilav2EY-25" style="edgeStyle=orthogonalEdgeStyle;rounded=0;orthogonalLoop=1;jettySize=auto;html=1;entryX=0;entryY=0.5;entryDx=0;entryDy=0;" edge="1" parent="1" source="UhYHGBfXSjaRqilav2EY-4" target="77e6c97f196da883-8">
          <mxGeometry relative="1" as="geometry" />
        </mxCell>
        <mxCell id="UhYHGBfXSjaRqilav2EY-26" style="edgeStyle=orthogonalEdgeStyle;rounded=0;orthogonalLoop=1;jettySize=auto;html=1;entryX=0;entryY=0.5;entryDx=0;entryDy=0;" edge="1" parent="1" source="UhYHGBfXSjaRqilav2EY-4" target="77e6c97f196da883-9">
          <mxGeometry relative="1" as="geometry" />
        </mxCell>
      </root>
    </mxGraphModel>
  </diagram>
</mxfile>
